# Blender 4.3.2
# www.blender.org
mtllib base_vhacd.mtl
o convex_0
v -0.048184 0.044126 0.003978
v 0.047511 0.155771 -0.009829
v 0.046444 0.155771 -0.014082
v -0.047116 0.155771 0.011425
v 0.013480 0.044126 0.046505
v 0.004975 0.044126 -0.048103
v -0.021600 0.155771 -0.043851
v -0.008842 0.155771 0.047573
v 0.047511 0.044126 -0.009829
v 0.037938 0.155771 0.030562
v -0.029037 0.044126 0.039068
v -0.038611 0.044126 -0.030025
v 0.028365 0.155771 -0.039598
v 0.044317 0.044126 0.019930
v -0.044990 0.155771 -0.018335
v 0.039006 0.044126 -0.028966
v -0.038611 0.155771 0.029494
v 0.019859 0.155771 0.044388
v 0.004975 0.155771 -0.048103
v -0.012026 0.044126 -0.047045
v 0.029433 0.047317 0.039068
v 0.047502 0.155771 0.010357
v -0.042863 0.044126 0.023115
v -0.008842 0.044126 0.047573
v 0.020927 0.044126 -0.043851
v -0.025852 0.155771 0.041194
v -0.047116 0.044126 -0.011955
v -0.038611 0.154689 -0.030025
v -0.030105 0.044126 -0.038530
v -0.048184 0.155771 -0.003450
v 0.043249 0.155771 -0.022587
v 0.009228 0.155771 0.047573
v 0.047502 0.044126 0.010357
v 0.012422 0.155771 -0.047045
v -0.004589 0.155771 -0.048103
v 0.037938 0.044126 0.030562
v -0.019473 0.044126 0.044388
v 0.029433 0.152580 0.039068
v 0.028365 0.044126 -0.039598
v 0.043249 0.044126 -0.022587
v 0.042191 0.155771 0.024183
v -0.030105 0.155771 -0.038530
v -0.021600 0.044126 -0.043851
v -0.043922 0.155771 0.020998
v -0.039678 0.044126 0.028436
v 0.039006 0.155771 -0.028966
v -0.047116 0.044126 0.011425
v 0.009228 0.044126 0.047573
v -0.044990 0.044126 -0.018335
v 0.024112 0.044126 0.042262
v 0.012422 0.044126 -0.047045
v 0.018801 0.147246 -0.044919
v -0.019473 0.155771 0.044388
v -0.012026 0.155771 -0.047045
v -0.047116 0.155771 -0.011955
v -0.029037 0.155771 0.039068
v -0.004589 0.044126 -0.048103
v -0.040737 0.044126 -0.026840
v -0.048184 0.044126 -0.003450
v -0.048184 0.155771 0.003978
v 0.044317 0.155771 0.019930
v 0.025180 0.152580 -0.041724
v 0.045376 0.044126 -0.017276
v 0.019859 0.044126 0.044388
vn 0.4471 -0.0000 0.8945
vn -0.0000 1.0000 -0.0000
vn -0.0000 -1.0000 -0.0000
vn 0.9699 -0.0000 -0.2433
vn 1.0000 -0.0000 0.0004
vn -0.7071 -0.0000 -0.7071
vn 0.2870 0.0018 0.9579
vn -0.0000 -0.0000 1.0000
vn 0.9489 -0.0000 0.3157
vn 0.1407 -0.0000 -0.9901
vn -0.0000 -0.0000 -1.0000
vn 0.7071 -0.0000 0.7071
vn -0.2870 -0.0000 0.9579
vn -0.4861 -0.0028 0.8739
vn 0.5437 0.4460 0.7110
vn 0.7068 -0.0000 -0.7074
vn 0.8326 -0.0000 -0.5538
vn 0.8575 -0.0033 0.5145
vn 0.8320 -0.0000 0.5547
vn -0.4146 0.8572 -0.3056
vn -0.5304 -0.0000 -0.8478
vn -0.3165 -0.0000 -0.9486
vn -0.8580 0.0016 0.5136
vn -0.8479 0.0031 0.5301
vn -0.9899 -0.0000 0.1420
vn -0.9486 -0.0000 0.3165
vn -0.9397 -0.0024 0.3419
vn 0.2436 -0.0000 0.9699
vn -0.9487 -0.0000 -0.3161
vn 0.6165 -0.2988 0.7285
vn 0.4862 0.0019 0.8738
vn 0.5147 -0.0000 0.8574
vn 0.3162 -0.0000 -0.9487
vn 0.3516 -0.0024 -0.9362
vn -0.4477 -0.0000 0.8942
vn -0.1408 -0.0000 -0.9900
vn -0.9922 -0.0000 -0.1246
vn -0.5552 -0.0000 0.8317
vn -0.7068 -0.0000 0.7074
vn -0.7071 0.0001 0.7071
vn -0.8317 -0.0000 -0.5552
vn -0.8777 0.0031 -0.4792
vn -0.8944 -0.0000 -0.4473
vn -1.0000 -0.0000 -0.0000
vn 0.8945 -0.0000 0.4471
vn 0.4164 0.1783 -0.8915
vn 0.5552 -0.0000 -0.8317
vn 0.4964 -0.0024 -0.8681
vn 0.3989 0.0705 -0.9143
vn 0.4478 -0.0000 -0.8941
vn 0.9613 -0.0013 -0.2756
vn 0.9361 0.0011 -0.3517
vn 0.9283 -0.0000 -0.3718
vn 0.3150 -0.0000 0.9491
s 0
f 50//1 18//1 64//1
f 2//2 3//2 4//2
f 5//3 1//3 6//3
f 4//2 3//2 7//2
f 2//2 4//2 8//2
f 3//4 2//4 9//4
f 5//3 6//3 9//3
f 2//2 8//2 10//2
f 1//3 5//3 11//3
f 6//3 1//3 12//3
f 7//2 3//2 13//2
f 5//3 9//3 14//3
f 4//2 7//2 15//2
f 9//3 6//3 16//3
f 8//2 4//2 17//2
f 10//2 8//2 18//2
f 7//2 13//2 19//2
f 6//3 12//3 20//3
f 9//5 2//5 22//5
f 2//2 10//2 22//2
f 1//3 11//3 23//3
f 11//3 5//3 24//3
f 16//3 6//3 25//3
f 8//2 17//2 26//2
f 12//3 1//3 27//3
f 20//3 12//3 29//3
f 12//6 28//6 29//6
f 4//2 15//2 30//2
f 13//2 3//2 31//2
f 5//7 18//7 32//7
f 18//2 8//2 32//2
f 8//8 24//8 32//8
f 14//3 9//3 33//3
f 9//5 22//5 33//5
f 22//9 14//9 33//9
f 6//10 19//10 34//10
f 19//2 13//2 34//2
f 19//11 6//11 35//11
f 7//2 19//2 35//2
f 5//3 14//3 36//3
f 10//12 21//12 36//12
f 24//13 8//13 37//13
f 11//3 24//3 37//3
f 26//14 11//14 37//14
f 10//15 18//15 38//15
f 21//12 10//12 38//12
f 13//16 16//16 39//16
f 16//3 25//3 39//3
f 9//3 16//3 40//3
f 16//17 31//17 40//17
f 22//2 10//2 41//2
f 36//18 14//18 41//18
f 10//19 36//19 41//19
f 15//2 7//2 42//2
f 28//20 15//20 42//20
f 7//21 29//21 42//21
f 29//6 28//6 42//6
f 7//22 20//22 43//22
f 20//3 29//3 43//3
f 29//21 7//21 43//21
f 17//2 4//2 44//2
f 44//23 23//23 45//23
f 23//3 11//3 45//3
f 17//24 44//24 45//24
f 16//16 13//16 46//16
f 13//2 31//2 46//2
f 31//17 16//17 46//17
f 4//25 1//25 47//25
f 1//3 23//3 47//3
f 44//26 4//26 47//26
f 23//27 44//27 47//27
f 24//3 5//3 48//3
f 5//28 32//28 48//28
f 32//8 24//8 48//8
f 12//3 27//3 49//3
f 27//29 15//29 49//29
f 5//3 36//3 50//3
f 36//30 21//30 50//30
f 38//31 18//31 50//31
f 21//32 38//32 50//32
f 25//3 6//3 51//3
f 6//10 34//10 51//10
f 51//33 34//33 52//33
f 25//34 51//34 52//34
f 8//2 26//2 53//2
f 37//13 8//13 53//13
f 26//35 37//35 53//35
f 20//22 7//22 54//22
f 7//2 35//2 54//2
f 35//36 20//36 54//36
f 15//29 27//29 55//29
f 30//2 15//2 55//2
f 27//37 30//37 55//37
f 26//2 17//2 56//2
f 11//38 26//38 56//38
f 45//39 11//39 56//39
f 17//40 45//40 56//40
f 6//3 20//3 57//3
f 35//11 6//11 57//11
f 20//36 35//36 57//36
f 28//41 12//41 58//41
f 15//42 28//42 58//42
f 12//3 49//3 58//3
f 49//43 15//43 58//43
f 27//3 1//3 59//3
f 1//44 30//44 59//44
f 30//37 27//37 59//37
f 1//25 4//25 60//25
f 30//44 1//44 60//44
f 4//2 30//2 60//2
f 14//9 22//9 61//9
f 22//2 41//2 61//2
f 41//45 14//45 61//45
f 34//46 13//46 62//46
f 13//47 39//47 62//47
f 39//48 25//48 62//48
f 52//49 34//49 62//49
f 25//50 52//50 62//50
f 3//51 9//51 63//51
f 31//52 3//52 63//52
f 9//3 40//3 63//3
f 40//53 31//53 63//53
f 18//54 5//54 64//54
f 5//3 50//3 64//3
o convex_1
v 0.063461 -0.000532 -0.003438
v -0.063070 0.000532 0.011425
v -0.063070 0.005846 0.011425
v -0.012029 0.004786 -0.062975
v 0.034739 0.010100 0.053952
v 0.040064 0.010100 -0.050224
v -0.010964 -0.000532 0.062445
v -0.051365 0.011164 -0.026831
v -0.014147 -0.000532 -0.061926
v -0.036478 0.010100 0.052891
v 0.063461 0.010100 0.007166
v 0.049626 -0.000532 0.040126
v -0.052431 -0.000532 -0.036410
v 0.034739 -0.000532 -0.053421
v -0.027982 0.010100 -0.057680
v 0.037934 0.011164 0.030559
v -0.050300 -0.000532 0.039065
v -0.051365 0.011164 0.027362
v -0.005651 0.010100 0.063519
v 0.028360 0.011164 -0.039595
v 0.018798 0.000532 0.061396
v 0.058135 0.010100 -0.026843
v -0.060939 0.010100 -0.019387
v 0.010290 0.010100 -0.062988
v 0.051756 -0.000532 -0.037472
v -0.058809 0.010100 0.025239
v 0.058135 0.010100 0.027374
v -0.062005 -0.000532 -0.014079
v -0.050300 0.010100 -0.039595
v -0.038608 0.000532 -0.051285
v 0.011355 0.000532 -0.062988
v 0.060265 -0.000532 0.020980
v -0.026916 0.000532 0.058211
v -0.008834 0.011164 0.047570
v -0.012029 0.011164 -0.047026
v 0.047508 0.011164 -0.009832
v 0.017733 0.010100 0.061396
v 0.030490 -0.000532 0.056088
v -0.063070 0.010100 -0.010894
v 0.062395 0.000532 -0.015140
v 0.030490 0.010100 -0.056606
v 0.046443 0.010100 0.044385
v 0.063461 0.010100 -0.007697
v -0.048170 0.010100 0.042262
v -0.021591 0.010100 0.060322
v -0.039674 0.000532 0.050755
v -0.059874 -0.000532 0.022054
v 0.008159 0.000532 0.063532
v -0.009899 0.010100 -0.062975
v 0.049626 0.010100 -0.040657
v -0.024786 -0.000532 -0.058729
v -0.058809 0.000532 -0.025769
v 0.037934 0.000532 0.051829
v -0.000337 0.000532 -0.064062
v -0.038608 0.010100 -0.051285
v 0.023047 0.000532 -0.059803
v 0.013485 0.011164 0.046508
v -0.063070 0.010100 0.009289
v 0.056005 0.000532 0.031621
v -0.055614 0.010100 -0.032151
v 0.043247 -0.000532 -0.047039
v -0.054549 0.000532 0.033744
v 0.063461 0.000532 0.008228
v 0.062395 0.010100 0.014610
vn 0.9898 0.0157 0.1417
vn -0.0000 -1.0000 -0.0000
vn -0.0000 1.0000 -0.0000
vn -0.7292 -0.0581 -0.6818
vn 0.0330 -0.9813 -0.1899
vn -0.0289 0.9980 -0.0563
vn 0.0097 0.9986 -0.0529
vn 0.4006 0.0446 0.9152
vn 0.4146 0.0171 0.9098
vn -1.0000 -0.0000 -0.0000
vn -0.0905 0.9959 -0.0000
vn -0.1367 0.9900 -0.0343
vn -0.9954 -0.0884 -0.0379
vn -0.9696 -0.0242 -0.2433
vn 0.3361 -0.9347 -0.1156
vn 0.8988 -0.1168 -0.4226
vn 0.5544 -0.0276 -0.8318
vn 0.0384 0.9976 -0.0576
vn 0.0190 0.9980 -0.0600
vn 0.0418 0.9978 0.0511
vn 0.0589 0.9974 0.0405
vn 1.0000 -0.0000 -0.0000
vn 0.0665 0.9978 -0.0000
vn 0.0691 0.9974 -0.0192
vn 0.9949 -0.0377 -0.0941
vn 0.9585 0.1006 -0.2666
vn -0.0801 0.9929 0.0881
vn -0.1704 0.9796 0.1065
vn -0.0293 0.9978 0.0587
vn -0.1966 -0.0008 0.9805
vn -0.4460 0.0511 0.8936
vn -0.2602 -0.0677 0.9632
vn -0.0268 0.9980 0.0564
vn -0.0139 0.9975 0.0693
vn -0.1147 -0.9745 0.1929
vn -0.5044 -0.0242 0.8631
vn -0.1188 -0.9719 0.2032
vn -0.6715 0.0594 0.7386
vn -0.7363 -0.0553 0.6744
vn -0.9576 -0.0000 0.2880
vn -0.9562 0.0082 0.2924
vn -0.3825 -0.9237 0.0226
vn -0.0525 -0.0744 0.9958
vn 0.1968 0.0219 0.9802
vn 0.0896 0.1307 0.9874
vn 0.0392 -0.9660 0.2557
vn 0.0677 -0.9389 0.3374
vn -0.2793 0.1119 -0.9537
vn -0.0203 0.9974 -0.0692
vn -0.0000 0.9978 -0.0666
vn 0.0475 0.9977 -0.0475
vn 0.8514 0.0135 -0.5244
vn 0.0484 0.9983 -0.0311
vn 0.0503 0.9983 -0.0310
vn -0.2870 -0.0741 -0.9551
vn -0.3154 -0.0012 -0.9490
vn -0.2170 -0.9384 -0.2688
vn -0.4768 -0.0568 -0.8772
vn -0.4941 -0.8432 -0.2118
vn -0.9631 -0.0366 -0.2666
vn 0.3710 -0.8152 0.4447
vn 0.4992 -0.0255 0.8661
vn 0.6324 0.0395 0.7736
vn 0.7022 -0.0735 0.7082
vn -0.1411 -0.1372 -0.9804
vn 0.0274 -0.9541 -0.2982
vn 0.0915 0.0102 -0.9958
vn -0.0808 0.0324 -0.9962
vn -0.0006 0.1122 -0.9937
vn -0.0381 0.9973 -0.0632
vn -0.0902 0.9918 -0.0902
vn -0.5156 -0.0000 -0.8568
vn -0.7070 -0.0000 -0.7072
vn 0.0857 -0.9453 -0.3146
vn 0.2627 0.0292 -0.9644
vn 0.4726 -0.0742 -0.8782
vn 0.3002 0.0840 -0.9502
vn 0.0325 0.9982 0.0498
vn 0.0031 0.9978 0.0659
vn 0.0277 0.9976 0.0634
vn 0.0063 0.9976 0.0695
vn -0.9581 0.1285 0.2560
vn -0.1528 0.9874 0.0408
vn 0.5183 -0.8052 0.2880
vn 0.9263 -0.0398 0.3748
vn 0.8000 -0.0008 0.5999
vn 0.8222 0.0678 0.5651
vn -0.1619 0.9845 -0.0676
vn -0.1305 0.9871 -0.0932
vn -0.8138 -0.0109 -0.5810
vn -0.8589 -0.0530 -0.5095
vn -0.9217 0.0513 -0.3845
vn 0.5990 -0.0599 -0.7985
vn 0.7073 -0.0000 -0.7069
vn 0.7463 -0.0493 -0.6638
vn -0.7839 -0.0294 0.6201
vn -0.8443 0.0931 0.5277
vn -0.9083 -0.0339 0.4169
vn -0.6079 -0.7166 0.3421
vn 0.5701 -0.8182 0.0746
vn 0.9697 -0.0512 0.2388
vn 0.0555 0.9983 0.0185
vn 0.9486 -0.0004 0.3166
vn 0.0578 0.9983 0.0083
vn 0.0514 0.9986 0.0122
s 0
f 127//55 75//55 128//55
f 65//56 71//56 73//56
f 71//56 65//56 76//56
f 73//56 71//56 77//56
f 65//56 73//56 78//56
f 77//56 71//56 81//56
f 80//57 72//57 82//57
f 72//57 80//57 84//57
f 65//56 78//56 89//56
f 77//56 81//56 92//56
f 77//58 93//58 94//58
f 78//59 73//59 95//59
f 76//56 65//56 96//56
f 80//57 82//57 98//57
f 79//60 72//60 99//60
f 72//57 84//57 99//57
f 84//61 88//61 99//61
f 84//57 80//57 100//57
f 85//62 69//62 101//62
f 71//56 76//56 102//56
f 69//63 85//63 102//63
f 66//64 67//64 103//64
f 82//65 72//65 103//65
f 72//66 87//66 103//66
f 92//67 66//67 103//67
f 87//68 92//68 103//68
f 65//69 89//69 104//69
f 89//70 86//70 104//70
f 70//71 78//71 105//71
f 84//72 70//72 105//72
f 88//73 84//73 105//73
f 80//74 69//74 106//74
f 91//75 80//75 106//75
f 75//76 65//76 107//76
f 100//77 75//77 107//77
f 86//78 100//78 107//78
f 65//79 104//79 107//79
f 104//80 86//80 107//80
f 74//81 82//81 108//81
f 82//82 90//82 108//82
f 82//83 74//83 109//83
f 71//84 83//84 109//84
f 74//85 97//85 109//85
f 97//86 71//86 109//86
f 98//87 82//87 109//87
f 83//88 98//88 109//88
f 81//89 71//89 110//89
f 97//90 74//90 110//90
f 71//91 97//91 110//91
f 74//92 108//92 110//92
f 108//93 81//93 110//93
f 67//94 66//94 111//94
f 90//95 67//95 111//95
f 66//96 92//96 111//96
f 92//56 81//56 111//56
f 83//97 71//97 112//97
f 85//98 101//98 112//98
f 101//99 83//99 112//99
f 71//100 102//100 112//100
f 102//101 85//101 112//101
f 68//102 79//102 113//102
f 79//103 99//103 113//103
f 99//104 88//104 113//104
f 70//105 84//105 114//105
f 86//106 89//106 114//106
f 84//107 100//107 114//107
f 100//108 86//108 114//108
f 68//109 73//109 115//109
f 73//56 77//56 115//56
f 79//110 68//110 115//110
f 77//111 94//111 115//111
f 94//112 79//112 115//112
f 77//113 92//113 116//113
f 92//114 87//114 116//114
f 102//115 76//115 117//115
f 69//116 102//116 117//116
f 106//117 69//117 117//117
f 76//118 106//118 117//118
f 73//119 68//119 118//119
f 95//120 73//120 118//120
f 88//121 95//121 118//121
f 68//122 113//122 118//122
f 113//123 88//123 118//123
f 72//124 79//124 119//124
f 93//125 72//125 119//125
f 79//126 94//126 119//126
f 94//127 93//127 119//127
f 78//128 95//128 120//128
f 95//129 88//129 120//129
f 105//130 78//130 120//130
f 88//131 105//131 120//131
f 69//132 80//132 121//132
f 80//57 98//57 121//57
f 98//133 83//133 121//133
f 101//134 69//134 121//134
f 83//135 101//135 121//135
f 67//136 90//136 122//136
f 90//137 82//137 122//137
f 103//64 67//64 122//64
f 82//65 103//65 122//65
f 76//138 96//138 123//138
f 96//139 91//139 123//139
f 106//140 76//140 123//140
f 91//141 106//141 123//141
f 87//142 72//142 124//142
f 72//143 93//143 124//143
f 93//144 77//144 124//144
f 77//145 116//145 124//145
f 116//146 87//146 124//146
f 78//147 70//147 125//147
f 89//56 78//56 125//56
f 70//148 114//148 125//148
f 114//149 89//149 125//149
f 81//150 108//150 126//150
f 108//151 90//151 126//151
f 90//152 111//152 126//152
f 111//153 81//153 126//153
f 65//76 75//76 127//76
f 96//154 65//154 127//154
f 96//155 127//155 128//155
f 80//156 91//156 128//156
f 91//157 96//157 128//157
f 75//158 100//158 128//158
f 100//159 80//159 128//159
o convex_2
v 0.031560 0.044126 0.036941
v 0.004974 0.044126 -0.048103
v 0.004974 0.011164 -0.048103
v -0.062006 0.030297 0.018863
v 0.009229 0.011164 0.047573
v 0.047511 0.011164 -0.009829
v -0.051372 0.011164 -0.026840
v -0.051372 0.044126 -0.026840
v -0.019469 0.044126 0.044388
v 0.043255 0.044126 -0.022578
v -0.051372 0.011164 0.027377
v 0.044317 0.011164 0.019930
v 0.047511 0.044126 0.010367
v -0.051372 0.044126 0.027377
v 0.028365 0.011164 -0.039598
v -0.060934 0.026051 -0.025772
v -0.021591 0.044126 -0.043851
v -0.012029 0.011164 -0.047045
v -0.019469 0.011164 0.044388
v 0.009229 0.044126 0.047573
v -0.060934 0.014355 -0.008761
v -0.060934 0.039870 -0.016208
v 0.023048 0.044126 -0.042783
v 0.030488 0.011164 0.038009
v 0.043255 0.011164 -0.022578
v -0.008834 0.044126 0.047573
v 0.042194 0.044126 0.024183
v 0.047511 0.044126 -0.009829
v -0.062006 0.020737 0.016736
v -0.021591 0.011164 -0.043851
v 0.019864 0.044126 0.044379
v 0.039000 0.044126 -0.028966
v 0.047511 0.011164 0.010367
v 0.012413 0.011164 -0.047045
v -0.008834 0.011164 0.047573
v -0.062006 0.018608 -0.017276
v -0.004600 0.044126 -0.048103
v 0.037938 0.011164 0.030562
v 0.019864 0.011164 0.044379
v -0.062006 0.033488 0.015668
v -0.062006 0.032424 -0.020461
v 0.039000 0.011164 -0.028966
v 0.028365 0.044126 -0.039598
v -0.060934 0.032424 -0.024714
v 0.012413 0.044126 -0.047045
v -0.060934 0.015420 -0.019393
v 0.020925 0.011164 -0.043851
v -0.060934 0.020737 -0.024714
v -0.012029 0.044126 -0.047045
v 0.037938 0.044126 0.030562
v -0.025847 0.044126 0.041194
v -0.060934 0.039870 -0.008761
v 0.024120 0.044126 0.042252
v -0.004600 0.011164 -0.048103
v 0.045378 0.011164 -0.017267
v 0.044317 0.044126 0.019930
v -0.025847 0.011164 0.041194
v -0.062006 0.036683 -0.014082
v 0.046439 0.044126 -0.014082
vn 0.9364 0.0038 -0.3509
vn -0.0000 -1.0000 -0.0000
vn -0.0000 1.0000 -0.0000
vn -0.6250 -0.0000 0.7806
vn -0.3166 -0.9486 -0.0000
vn -0.4066 0.9136 -0.0000
vn -0.2869 -0.0000 0.9580
vn -0.0000 -0.0000 1.0000
vn 1.0000 -0.0000 -0.0000
vn -0.7608 -0.1409 0.6335
vn -0.7344 -0.6651 0.1356
vn -0.4175 -0.0000 -0.9087
vn -0.3168 -0.0000 -0.9485
vn 0.2876 -0.0000 0.9577
vn 0.8323 -0.0000 -0.5544
vn 0.9485 -0.0000 0.3168
vn 0.1408 -0.0000 -0.9900
vn -1.0000 -0.0000 -0.0000
vn -0.9757 -0.2186 0.0137
vn -0.0000 -0.0000 -1.0000
vn 0.7070 -0.0001 0.7072
vn 0.8574 -0.0112 0.5145
vn -0.8296 0.3950 0.3945
vn 0.7070 -0.0000 -0.7072
vn 0.5139 -0.0000 -0.8579
vn -0.4815 0.2403 -0.8429
vn -0.4673 0.1448 -0.8722
vn -0.7297 0.5145 -0.4504
vn -0.9689 0.0405 -0.2442
vn -0.9340 0.2689 -0.2354
vn -0.4617 -0.8826 -0.0884
vn -0.9533 -0.3006 -0.0301
vn 0.4963 -0.0038 -0.8682
vn 0.3720 0.0061 -0.9282
vn 0.3513 -0.0000 -0.9363
vn -0.4747 -0.2896 -0.8311
vn -0.4645 -0.1729 -0.8685
vn -0.9877 -0.0351 -0.1524
vn -0.9865 -0.0320 -0.1607
vn -0.6544 -0.5349 -0.5345
vn -0.9615 -0.1944 -0.1942
vn -0.1410 -0.0000 -0.9900
vn 0.7072 -0.0000 0.7071
vn 0.8318 -0.0000 0.5550
vn -0.4760 -0.0000 0.8794
vn -0.4478 -0.0000 0.8941
vn -0.7690 0.6259 0.1298
vn 0.5810 0.0075 0.8139
vn 0.5142 -0.0111 0.8576
vn 0.4470 -0.0000 0.8945
vn 0.9286 -0.0000 -0.3712
vn 0.8947 -0.0000 0.4466
vn -0.9630 0.2241 -0.1496
vn -0.9478 0.3188 -0.0000
vn -0.9612 0.2742 0.0294
vn 0.9697 -0.0000 -0.2444
vn 0.9612 -0.0043 -0.2757
s 0
f 183//160 138//160 187//160
f 133//161 131//161 134//161
f 131//161 133//161 135//161
f 129//162 130//162 136//162
f 129//162 136//162 137//162
f 130//162 129//162 138//162
f 135//161 133//161 139//161
f 133//161 134//161 140//161
f 138//162 129//162 141//162
f 137//162 136//162 142//162
f 132//163 139//163 142//163
f 134//161 131//161 143//161
f 136//162 130//162 145//162
f 131//161 135//161 146//161
f 139//161 133//161 147//161
f 129//162 137//162 148//162
f 135//164 139//164 149//164
f 142//165 136//165 150//165
f 130//162 138//162 151//162
f 133//161 140//161 152//161
f 134//161 143//161 153//161
f 137//166 147//166 154//166
f 133//167 148//167 154//167
f 148//162 137//162 154//162
f 141//162 129//162 155//162
f 138//162 141//162 156//162
f 141//168 134//168 156//168
f 139//169 132//169 157//169
f 149//170 139//170 157//170
f 144//171 145//171 158//171
f 145//172 146//172 158//172
f 146//161 135//161 158//161
f 129//162 148//162 159//162
f 148//173 133//173 159//173
f 151//162 138//162 160//162
f 138//174 153//174 160//174
f 140//161 134//161 161//161
f 134//168 141//168 161//168
f 141//175 140//175 161//175
f 131//176 130//176 162//176
f 143//161 131//161 162//161
f 147//161 133//161 163//161
f 133//167 154//167 163//167
f 154//166 147//166 163//166
f 157//177 132//177 164//177
f 149//178 157//178 164//178
f 130//179 131//179 165//179
f 145//162 130//162 165//162
f 129//180 152//180 166//180
f 152//161 140//161 166//161
f 140//181 155//181 166//181
f 133//161 152//161 167//161
f 159//173 133//173 167//173
f 132//182 142//182 168//182
f 164//177 132//177 168//177
f 164//177 168//177 169//177
f 153//161 143//161 170//161
f 143//183 160//183 170//183
f 160//174 153//174 170//174
f 143//184 151//184 171//184
f 151//162 160//162 171//162
f 160//183 143//183 171//183
f 136//185 145//185 172//185
f 145//186 144//186 172//186
f 150//187 136//187 172//187
f 144//188 169//188 172//188
f 169//189 150//189 172//189
f 130//162 151//162 173//162
f 162//176 130//176 173//176
f 135//190 149//190 174//190
f 149//191 164//191 174//191
f 151//192 143//192 175//192
f 143//161 162//161 175//161
f 173//193 151//193 175//193
f 162//194 173//194 175//194
f 158//195 135//195 176//195
f 144//196 158//196 176//196
f 164//197 169//197 176//197
f 169//198 144//198 176//198
f 135//199 174//199 176//199
f 174//200 164//200 176//200
f 146//172 145//172 177//172
f 145//162 165//162 177//162
f 165//201 146//201 177//201
f 155//162 129//162 178//162
f 129//202 166//202 178//202
f 166//203 155//203 178//203
f 137//162 142//162 179//162
f 142//204 139//204 179//204
f 147//205 137//205 179//205
f 142//165 150//165 180//165
f 168//206 142//206 180//206
f 152//207 129//207 181//207
f 129//162 159//162 181//162
f 167//208 152//208 181//208
f 159//209 167//209 181//209
f 131//161 146//161 182//161
f 165//179 131//179 182//179
f 146//201 165//201 182//201
f 134//161 153//161 183//161
f 153//210 138//210 183//210
f 140//175 141//175 184//175
f 141//162 155//162 184//162
f 155//211 140//211 184//211
f 139//161 147//161 185//161
f 179//204 139//204 185//204
f 147//205 179//205 185//205
f 169//177 168//177 186//177
f 150//212 169//212 186//212
f 180//213 150//213 186//213
f 168//214 180//214 186//214
f 156//215 134//215 187//215
f 138//162 156//162 187//162
f 134//216 183//216 187//216
o convex_3
v -0.081146 0.034557 0.010368
v -0.081146 0.019671 0.015684
v -0.081146 0.019671 0.009305
v -0.062006 0.022863 0.006115
v -0.062006 0.030302 0.018873
v -0.062006 0.020734 0.016746
v -0.081146 0.029238 0.019937
v -0.062006 0.033493 0.009305
v -0.081146 0.029238 0.005053
v -0.067325 0.034557 0.014620
v -0.067325 0.024989 0.019937
v -0.067325 0.019671 0.009305
v -0.067325 0.031366 0.006115
v -0.081146 0.033493 0.016746
v -0.081146 0.024989 0.005053
v -0.081146 0.022863 0.018873
v -0.067325 0.029238 0.005053
vn -0.0000 -0.0000 -1.0000
vn -1.0000 -0.0000 -0.0000
vn 1.0000 -0.0000 -0.0000
vn 0.0465 0.9874 -0.1511
vn 0.4514 0.8465 0.2823
vn 0.3810 -0.2006 0.9026
vn 0.0465 0.1512 0.9874
vn -0.0000 -1.0000 -0.0000
vn -0.0000 -0.7069 -0.7073
vn 0.0492 -0.9931 0.1067
vn 0.4259 -0.8872 -0.1777
vn 0.0139 0.8210 -0.5707
vn -0.0544 0.7058 -0.7063
vn 0.0111 0.5999 0.8000
vn -0.0506 0.9851 0.1643
vn 0.0474 0.7352 0.6762
vn -0.0260 -0.6243 -0.7808
vn -0.0000 -0.7068 0.7074
vn 0.0262 -0.5786 0.8152
vn -0.0505 -0.1644 0.9851
vn 0.4722 0.2534 -0.8443
vn 0.3371 0.4204 -0.8424
vn -0.0000 0.4465 -0.8948
vn 0.0404 -0.1313 -0.9905
s 0
f 202//217 196//217 204//217
f 190//218 189//218 188//218
f 191//219 192//219 193//219
f 188//218 189//218 194//218
f 192//219 191//219 195//219
f 190//218 188//218 196//218
f 195//220 188//220 197//220
f 192//221 195//221 197//221
f 193//222 192//222 198//222
f 192//223 194//223 198//223
f 189//224 190//224 199//224
f 190//225 191//225 199//225
f 193//226 189//226 199//226
f 191//227 193//227 199//227
f 188//228 195//228 200//228
f 196//229 188//229 200//229
f 188//218 194//218 201//218
f 194//230 192//230 201//230
f 197//231 188//231 201//231
f 192//232 197//232 201//232
f 191//233 190//233 202//233
f 190//218 196//218 202//218
f 189//234 193//234 203//234
f 194//218 189//218 203//218
f 193//235 198//235 203//235
f 198//236 194//236 203//236
f 195//237 191//237 204//237
f 200//238 195//238 204//238
f 196//239 200//239 204//239
f 191//240 202//240 204//240
o convex_4
v -0.074770 0.023925 -0.002392
v -0.074770 0.030302 -0.022594
v -0.074770 0.023925 -0.022594
v -0.092839 0.030302 -0.022594
v -0.062010 0.036683 -0.010899
v -0.092839 0.036683 -0.007709
v -0.092839 0.017544 -0.007709
v -0.062010 0.017544 -0.014087
v -0.092839 0.019672 -0.020466
v -0.062010 0.030302 -0.003456
v -0.062010 0.035619 -0.017275
v -0.092839 0.030302 -0.002392
v -0.092839 0.036683 -0.017275
v -0.062010 0.023925 -0.021530
v -0.062010 0.018608 -0.007709
v -0.074770 0.017544 -0.017275
v -0.092839 0.021799 -0.003456
v -0.074770 0.036683 -0.007709
v -0.074770 0.034555 -0.020466
v -0.062010 0.030302 -0.021530
v -0.092839 0.017544 -0.017275
v -0.062010 0.023925 -0.003456
v -0.074770 0.019672 -0.020466
v -0.074770 0.032427 -0.003456
v -0.074770 0.017544 -0.007709
v -0.092839 0.023925 -0.022594
v -0.062010 0.035619 -0.007709
v -0.062010 0.018608 -0.017275
v -0.074770 0.036683 -0.017275
v -0.074770 0.021799 -0.003456
vn -0.0000 -0.7069 0.7073
vn -0.0000 -0.0000 -1.0000
vn -1.0000 -0.0000 -0.0000
vn 1.0000 -0.0000 -0.0000
vn 0.0343 0.0973 0.9947
vn -0.0000 1.0000 -0.0000
vn 0.0831 -0.0000 -0.9965
vn -0.0000 -1.0000 -0.0000
vn -0.0438 -0.1240 0.9913
vn -0.0000 0.4475 -0.8943
vn -0.0601 0.6391 -0.7667
vn 0.0744 0.4462 -0.8918
vn 0.1417 0.6185 -0.7729
vn -0.0000 -0.8320 -0.5548
vn 0.0831 -0.0000 0.9965
vn -0.0000 -0.4475 -0.8943
vn 0.0744 -0.4462 -0.8918
vn -0.0300 0.6399 0.7679
vn 0.0338 0.2028 0.9786
vn -0.0000 0.7069 0.7074
vn 0.0820 -0.9830 0.1640
vn 0.0789 0.9457 0.3154
vn 0.1035 0.6213 0.7767
vn 0.0588 0.7056 0.7061
vn 0.0789 -0.9456 -0.3156
vn 0.1417 -0.6185 -0.7729
vn 0.0692 -0.8300 -0.5535
vn 0.0820 0.9830 -0.1640
vn 0.0692 0.8300 -0.5535
vn -0.0000 0.8320 -0.5548
vn -0.0000 -0.4476 0.8943
vn 0.0744 -0.4463 0.8918
vn 0.1035 -0.6213 0.7767
vn 0.0588 -0.7057 0.7060
s 0
f 221//241 229//241 234//241
f 206//242 207//242 208//242
f 210//243 208//243 211//243
f 211//243 208//243 213//243
f 212//244 209//244 214//244
f 209//244 212//244 215//244
f 210//243 211//243 216//243
f 205//245 214//245 216//245
f 208//243 210//243 217//243
f 210//246 209//246 217//246
f 207//247 206//247 218//247
f 215//244 212//244 218//244
f 212//244 214//244 219//244
f 212//248 211//248 220//248
f 205//249 216//249 221//249
f 216//243 211//243 221//243
f 209//246 210//246 222//246
f 206//250 208//250 223//250
f 208//251 217//251 223//251
f 218//247 206//247 224//247
f 215//244 218//244 224//244
f 206//252 223//252 224//252
f 223//253 215//253 224//253
f 211//243 213//243 225//243
f 220//248 211//248 225//248
f 213//254 220//254 225//254
f 214//255 205//255 226//255
f 219//244 214//244 226//244
f 213//256 207//256 227//256
f 207//257 218//257 227//257
f 220//254 213//254 227//254
f 210//258 216//258 228//258
f 216//259 214//259 228//259
f 222//260 210//260 228//260
f 211//248 212//248 229//248
f 212//261 219//261 229//261
f 221//241 211//241 229//241
f 208//242 207//242 230//242
f 207//256 213//256 230//256
f 213//243 208//243 230//243
f 214//244 209//244 231//244
f 209//262 222//262 231//262
f 228//263 214//263 231//263
f 222//264 228//264 231//264
f 218//244 212//244 232//244
f 212//265 220//265 232//265
f 227//266 218//266 232//266
f 220//267 227//267 232//267
f 209//268 215//268 233//268
f 217//246 209//246 233//246
f 215//269 223//269 233//269
f 223//270 217//270 233//270
f 205//271 221//271 234//271
f 226//272 205//272 234//272
f 219//273 226//273 234//273
f 229//274 219//274 234//274
