# File generated by ImageToStl.com - Free Image and 3D model conversion tools

o obj1
v 0.0059 -0.01046963 0.0051335
v 0.0059 -0.00945542 -0.00682356
v 0.0059 -0.00365037 -0.00163549
v 0.0059 0.05146373 0.02333731
v 0.0059 0.05092277 0.02521172
v 0.0059 0.03529219 0.0284833
v 0.0059 0.05030332 0.01969066
v 0.0059 0.05124621 0.02139857
v 0.0059 0.04877861 0.01847357
v 0.0059 0.03475123 0.03035771
v 0.0059 0.04423964 0.03813333
v 0.0059 0.03358087 0.03262055
v 0.0059 0.00399848 -0.00011031
v 0.0059 0.00355464 -0.00183426
v 0.0059 0.00469987 -0.0043242
v 0.0059 0.00240677 -0.00319492
v 0.0059 0.00160396 -0.00555767
v 0.0059 0.0007822 -0.00392278
v 0.0059 -0.0016731 -0.00616346
v 0.0059 -0.00099729 -0.00387368
v 0.0059 -0.00257926 -0.00305736
v 0.0059 0.00099729 0.00387368
v 0.0059 0.03260707 0.02361956
v 0.0059 -0.0007822 0.00392278
v 0.0059 -0.00081291 0.00633456
v 0.0059 -0.00240677 0.00319492
v 0.0059 -0.00268731 0.00579361
v 0.0059 -0.00355464 0.00183426
v 0.0059 -0.00399848 0.00011031
v 0.0059 0.03507467 0.02654456
v 0.0059 0.03413178 0.02483665
v 0.0059 0.00365037 0.00163549
v 0.0059 0.00257926 0.00305736
v -0.0045 0.03358087 0.03262055
v -0.0059 0.03358087 0.03262055
v -0.0059 0.03475123 0.03035771
v 0.0045 0.03358087 0.03262055
v 0.0045 0.03013539 0.03928228
v -0.0045 0.03013539 0.03928228
v 0.0045 0.04423964 0.03813333
v -0.0059 0.05092277 0.02521172
v -0.0059 0.04423964 0.03813333
v -0.0045 0.04423964 0.03813333
v -0.0045 0.04079416 0.04479506
v 0.0045 0.04079416 0.04479506
v 0.0039 -0.01046963 0.0051335
v -0.0059 -0.00268731 0.00579361
v -0.0059 -0.01046963 0.0051335
v -0.0039 -0.01046963 0.0051335
v -0.0039 -0.02043554 0.00428819
v 0.0039 -0.02043554 0.00428819
v -0.0059 0.04877861 0.01847357
v -0.0059 0.00469987 -0.0043242
v -0.0059 0.00355464 -0.00183426
v -0.0059 -0.00945542 -0.00682356
v -0.0059 -0.00257926 -0.00305736
v -0.0059 -0.0016731 -0.00616346
v -0.0059 -0.00099729 -0.00387368
v -0.0059 0.00160396 -0.00555767
v -0.0059 0.0007822 -0.00392278
v -0.0059 0.00240677 -0.00319492
v -0.0059 0.05124621 0.02139857
v -0.0059 0.05030332 0.01969066
v -0.0059 0.05146373 0.02333731
v -0.0059 0.03260707 0.02361956
v -0.0059 0.03413178 0.02483665
v -0.0059 0.03507467 0.02654456
v -0.0059 0.03529219 0.0284833
v -0.0059 -0.00399848 0.00011031
v -0.0059 -0.00365037 -0.00163549
v -0.0059 0.00399848 -0.00011031
v -0.0059 0.00365037 0.00163549
v -0.0059 0.00257926 0.00305736
v -0.0059 0.00099729 0.00387368
v -0.0059 -0.00081291 0.00633456
v -0.0059 -0.0007822 0.00392278
v -0.0059 -0.00240677 0.00319492
v -0.0059 -0.00355464 0.00183426
v -0.0039 -0.02244974 0.0037542
v 0.0039 -0.02244974 0.0037542
v -0.0039 -0.02415983 0.00256352
v 0.0039 -0.02415983 0.00256352
v -0.0039 -0.02535955 0.00085976
v 0.0039 -0.02535955 0.00085976
v -0.0039 -0.0259042 -0.00115158
v 0.0039 -0.0259042 -0.00115158
v -0.0039 -0.02572809 -0.00322791
v 0.0039 -0.02572809 -0.00322791
v -0.0039 -0.02485245 -0.00511877
v 0.0039 -0.02485245 -0.00511877
v -0.0039 -0.0233829 -0.00659613
v 0.0039 -0.0233829 -0.00659613
v -0.0039 -0.0214967 -0.00748177
v 0.0039 -0.0214967 -0.00748177
v -0.0039 -0.01942134 -0.00766888
v 0.0039 -0.01942134 -0.00766888
v 0.0039 -0.00945542 -0.00682356
v -0.0039 -0.00945542 -0.00682356
v 0.0039 -0.0225077 -0.0047477
v -0.0039 -0.0225077 -0.0047477
v 0.0039 -0.02357881 -0.00332583
v -0.0039 -0.02357881 -0.00332583
v 0.0039 -0.02392692 -0.00158003
v -0.0039 -0.02392692 -0.00158003
v 0.0039 -0.02348308 0.00014392
v -0.0039 -0.02348308 0.00014392
v 0.0039 -0.02233521 0.00150457
v -0.0039 -0.02233521 0.00150457
v 0.0039 -0.02071064 0.00223243
v -0.0039 -0.02071064 0.00223243
v 0.0039 -0.01893115 0.00218334
v -0.0039 -0.01893115 0.00218334
v 0.0039 -0.01734918 0.00136701
v -0.0039 -0.01734918 0.00136701
v 0.0039 -0.01627807 -5.486E-05
v -0.0039 -0.01627807 -5.486E-05
v 0.0039 -0.01592996 -0.00180066
v -0.0039 -0.01592996 -0.00180066
v 0.0039 -0.0163738 -0.00352461
v -0.0039 -0.0163738 -0.00352461
v 0.0039 -0.01752168 -0.00488526
v -0.0039 -0.01752168 -0.00488526
v 0.0039 -0.01914624 -0.00561312
v -0.0039 -0.01914624 -0.00561312
v 0.0039 -0.02092573 -0.00556403
v -0.0039 -0.02092573 -0.00556403
v 0.0029 0.00095542 -0.00080602
v 0.0029 0.00355464 -0.00183426
v 0.0029 0.00123043 -0.00022032
v 0.0029 0.00399848 -0.00011031
v 0.0029 0.00117574 0.00042441
v 0.0029 0.00365037 0.00163549
v 0.0029 0.00080602 0.00095542
v 0.0029 0.00257926 0.00305736
v 0.0029 0.00022032 0.00123043
v 0.0029 0.00099729 0.00387368
v 0.0029 -0.00042441 0.00117574
v 0.0029 -0.0007822 0.00392278
v 0.0029 -0.00095542 0.00080602
v 0.0029 -0.00240677 0.00319492
v 0.0029 -0.00355464 0.00183426
v 0.0029 -0.00123043 0.00022032
v 0.0029 -0.00399848 0.00011031
v 0.0029 -0.00117574 -0.00042441
v 0.0029 -0.00365037 -0.00163549
v 0.0029 -0.00080602 -0.00095542
v 0.0029 -0.00257926 -0.00305736
v 0.0029 -0.00022032 -0.00123043
v 0.0029 -0.00099729 -0.00387368
v 0.0029 0.00042441 -0.00117574
v 0.0029 0.0007822 -0.00392278
v 0.0029 0.00240677 -0.00319492
v -0.0029 -0.00123043 0.00022032
v -0.0029 -0.00355464 0.00183426
v -0.0029 -0.00095542 0.00080602
v -0.0029 -0.00240677 0.00319492
v -0.0029 -0.00042441 0.00117574
v -0.0029 -0.0007822 0.00392278
v -0.0029 0.00022032 0.00123043
v -0.0029 0.00099729 0.00387368
v -0.0029 0.00080602 0.00095542
v -0.0029 0.00257926 0.00305736
v -0.0029 0.00117574 0.00042441
v -0.0029 0.00365037 0.00163549
v -0.0029 0.00123043 -0.00022032
v -0.0029 0.00399848 -0.00011031
v -0.0029 0.00355464 -0.00183426
v -0.0029 0.00095542 -0.00080602
v -0.0029 0.00240677 -0.00319492
v -0.0029 0.00042441 -0.00117574
v -0.0029 0.0007822 -0.00392278
v -0.0029 -0.00022032 -0.00123043
v -0.0029 -0.00099729 -0.00387368
v -0.0029 -0.00080602 -0.00095542
v -0.0029 -0.00257926 -0.00305736
v -0.0029 -0.00117574 -0.00042441
v -0.0029 -0.00365037 -0.00163549
v -0.0029 -0.00399848 0.00011031
v 0.0045 0.03465876 0.04108325
v -0.0045 0.03465876 0.04108325
v 0.0045 0.03428903 0.04161426
v -0.0045 0.03428903 0.04161426
v 0.0045 0.03423434 0.04225899
v -0.0045 0.03423434 0.04225899
v 0.0045 0.03450935 0.04284469
v -0.0045 0.03450935 0.04284469
v 0.0045 0.03504036 0.04321441
v -0.0045 0.03504036 0.04321441
v 0.0045 0.03568509 0.0432691
v -0.0045 0.03568509 0.0432691
v 0.0045 0.03627079 0.04299409
v -0.0045 0.03627079 0.04299409
v 0.0045 0.03664052 0.04246308
v -0.0045 0.03664052 0.04246308
v 0.0045 0.0366952 0.04181835
v -0.0045 0.0366952 0.04181835
v 0.0045 0.0364202 0.04123265
v -0.0045 0.0364202 0.04123265
v 0.0045 0.03588919 0.04086293
v -0.0045 0.03588919 0.04086293
v 0.0045 0.03524445 0.04080824
v -0.0045 0.03524445 0.04080824
v -0.0045 0.03953002 0.04645158
v -0.0045 0.03777555 0.04757585
v -0.0045 0.03574236 0.04803225
v -0.0045 0.0336757 0.04776573
v -0.0045 0.03182482 0.04680844
v -0.0045 0.03041298 0.04527586
v -0.0045 0.02961046 0.04335282
v -0.0045 0.02951405 0.04127127
v 0.0045 0.03182482 0.04680844
v 0.0045 0.03041298 0.04527586
v 0.0045 0.02951405 0.04127127
v 0.0045 0.02961046 0.04335282
v 0.0045 0.03953002 0.04645158
v 0.0045 0.03777555 0.04757585
v 0.0045 0.03574236 0.04803225
v 0.0045 0.0336757 0.04776573
vn 1 -0 -0
vn -0 -0.88823 -0.4594
vn 0 0.88823 0.4594
vn -0 -0.08452 0.99642
vn -1 0 0
vn -0 -0.1991 0.97998
vn -0 -0.31253 0.94991
vn -0 -0.52227 0.85278
vn -0 -0.61857 0.78573
vn -0 -0.78244 0.62273
vn -0 -0.85 0.52678
vn -0 -0.94824 0.31756
vn -0 -0.97891 0.20429
vn -0 -0.99966 -0.02591
vn -0 -0.98975 -0.14284
vn -0 -0.93052 -0.36625
vn -0 -0.8812 -0.47274
vn -0 -0.74913 -0.66242
vn -0 -0.66638 -0.74562
vn -0 -0.4774 -0.87869
vn -0 -0.37117 -0.92856
vn -0 -0.14808 -0.98898
vn -0 -0.0312 -0.99951
vn 0 0.08452 -0.99642
vn 0 0.75078 0.66055
vn 0 0.84207 0.53936
vn 0 0.96303 0.26938
vn 0 0.9927 0.12059
vn 0 0.98454 -0.17514
vn 0 0.94672 -0.32207
vn 0 0.81105 -0.58497
vn 0 0.71322 -0.70094
vn 0 0.47692 -0.87894
vn 0 0.33846 -0.94098
vn 0 0.04833 -0.99883
vn -0 -0.10333 -0.99465
vn -0 -0.38983 -0.92089
vn -0 -0.52466 -0.85131
vn -0 -0.75078 -0.66055
vn -0 -0.84207 -0.53936
vn -0 -0.96303 -0.26938
vn -0 -0.9927 -0.12059
vn -0 -0.98454 0.17514
vn -0 -0.94672 0.32207
vn -0 -0.81105 0.58497
vn -0 -0.71322 0.70094
vn -0 -0.47692 0.87894
vn -0 -0.33846 0.94098
vn -0 -0.04833 0.99883
vn 0 0.10333 0.99465
vn 0 0.38983 0.92089
vn 0 0.52466 0.85131
vn -0 -0.10333 -0.99465
vn 0 0.96303 0.26938
vn 0 0.10333 0.99465
vn -0 -0.96303 -0.26938
vn -0 -0.99642 -0.08452
vn -0 -0.4594 0.88823
vn 0 0.4594 -0.88823
vn 0 0.76658 0.64215
vn 0 0.86825 0.49613
vn 0 0.98495 0.17283
vn 0 0.99999 -0.00446
vn 0 0.93941 -0.3428
vn 0 0.86379 -0.50386
vn 0 0.64215 -0.76658
vn 0 0.49613 -0.86825
vn 0 0.17283 -0.98495
vn -0 -0.00446 -0.99999
vn -0 -0.3428 -0.93941
vn -0 -0.50386 -0.86379
vn -0 -0.76658 -0.64215
vn -0 -0.86825 -0.49613
vn -0 -0.98495 -0.17283
vn -0 -0.99999 0.00446
vn -0 -0.93941 0.3428
vn -0 -0.86379 0.50386
vn -0 -0.64215 0.76658
vn -0 -0.49613 0.86825
vn -0 -0.17283 0.98495
vn 0 0.00446 0.99999
vn 0 0.3428 0.93941
vn 0 0.50386 0.86379
vn -0 -0.93537 -0.35367
vn -0 -0.97036 -0.24166
vn -0 -0.99992 -0.01243
vn -0 -0.99449 0.1048
vn -0 -0.94387 0.33032
vn -0 -0.89868 0.43861
vn -0 -0.77397 0.63322
vn -0 -0.69446 0.71953
vn -0 -0.51072 0.85975
vn -0 -0.40649 0.91366
vn -0 -0.18587 0.98257
vn -0 -0.06949 0.99758
vn 0 0.1614 0.98689
vn 0 0.2759 0.96119
vn 0 0.4892 0.87217
vn 0 0.588 0.80886
vn 0 0.758 0.65226
vn 0 0.82919 0.55897
vn 0 0.14941 -0.98877
vn 0 0.21394 -0.97685
vn 0 0.33944 -0.94063
vn 0 0.40041 -0.91634
vn -0 -0.21311 0.97703
vn -0 -0.34024 0.94034
vn -0 -0.57078 0.8211
vn -0 -0.67419 0.73855
vn -0 -0.84156 0.54017
vn -0 -0.90551 0.42433
vn -0 -0.98421 0.177
vn -0 -0.99896 0.04551
vn -0 -0.97703 -0.21311
vn -0 -0.94034 -0.34024
vn 0 0.57078 -0.8211
vn 0 0.67419 -0.73855
vn 0 0.84156 -0.54017
vn 0 0.90551 -0.42433
vn 0 0.98421 -0.177
vn 0 0.99896 -0.04551
vn 0 0.97703 0.21311
vn 0 0.94034 0.34024
f 1//1 2//1 3//1
f 4//1 5//1 6//1
f 7//1 8//1 9//1
f 9//1 8//1 4//1
f 6//1 5//1 10//1
f 10//1 5//1 11//1
f 10//1 11//1 12//1
f 13//1 14//1 15//1
f 15//1 14//1 16//1
f 15//1 16//1 17//1
f 17//1 16//1 18//1
f 17//1 18//1 19//1
f 19//1 18//1 20//1
f 19//1 20//1 2//1
f 2//1 20//1 21//1
f 2//1 21//1 3//1
f 22//1 23//1 24//1
f 24//1 23//1 25//1
f 24//1 25//1 26//1
f 26//1 25//1 27//1
f 26//1 27//1 28//1
f 28//1 27//1 1//1
f 28//1 1//1 29//1
f 29//1 1//1 3//1
f 6//1 30//1 4//1
f 4//1 30//1 31//1
f 4//1 31//1 23//1
f 15//1 9//1 13//1
f 13//1 9//1 4//1
f 13//1 4//1 32//1
f 32//1 4//1 23//1
f 32//1 23//1 33//1
f 33//1 23//1 22//1
f 34//2 35//2 36//2
f 10//2 12//2 37//2
f 38//2 39//2 37//2
f 37//2 39//2 34//2
f 37//2 34//2 10//2
f 10//2 34//2 36//2
f 40//3 11//3 5//3
f 41//3 42//3 43//3
f 44//3 45//3 43//3
f 43//3 45//3 40//3
f 43//3 40//3 41//3
f 41//3 40//3 5//3
f 46//4 1//4 27//4
f 47//4 48//4 49//4
f 50//4 51//4 49//4
f 49//4 51//4 46//4
f 49//4 46//4 47//4
f 47//4 46//4 27//4
f 52//5 53//5 54//5
f 55//5 56//5 57//5
f 57//5 56//5 58//5
f 57//5 58//5 59//5
f 59//5 58//5 60//5
f 59//5 60//5 53//5
f 53//5 60//5 61//5
f 53//5 61//5 54//5
f 62//5 63//5 64//5
f 64//5 63//5 52//5
f 65//5 66//5 64//5
f 64//5 66//5 67//5
f 64//5 67//5 41//5
f 41//5 67//5 68//5
f 41//5 68//5 42//5
f 42//5 68//5 36//5
f 42//5 36//5 35//5
f 48//5 69//5 55//5
f 55//5 69//5 70//5
f 55//5 70//5 56//5
f 54//5 71//5 52//5
f 52//5 71//5 72//5
f 52//5 72//5 64//5
f 64//5 72//5 73//5
f 64//5 73//5 65//5
f 65//5 73//5 74//5
f 65//5 74//5 75//5
f 75//5 74//5 76//5
f 75//5 76//5 47//5
f 47//5 76//5 77//5
f 47//5 77//5 48//5
f 48//5 77//5 78//5
f 48//5 78//5 69//5
f 51//6 50//6 79//6
f 51//7 79//7 80//7
f 80//8 79//8 81//8
f 80//9 81//9 82//9
f 82//10 81//10 83//10
f 82//11 83//11 84//11
f 84//12 83//12 85//12
f 84//13 85//13 86//13
f 86//14 85//14 87//14
f 86//15 87//15 88//15
f 88//16 87//16 89//16
f 88//17 89//17 90//17
f 90//18 89//18 91//18
f 90//19 91//19 92//19
f 92//20 91//20 93//20
f 92//21 93//21 94//21
f 94//22 93//22 95//22
f 94//23 95//23 96//23
f 19//24 2//24 57//24
f 57//24 2//24 97//24
f 55//24 57//24 98//24
f 98//24 57//24 97//24
f 98//24 97//24 95//24
f 95//24 97//24 96//24
f 99//25 100//25 101//25
f 101//26 100//26 102//26
f 101//27 102//27 103//27
f 103//28 102//28 104//28
f 103//29 104//29 105//29
f 105//30 104//30 106//30
f 105//31 106//31 107//31
f 107//32 106//32 108//32
f 107//33 108//33 109//33
f 109//34 108//34 110//34
f 109//35 110//35 111//35
f 111//36 110//36 112//36
f 111//37 112//37 113//37
f 113//38 112//38 114//38
f 113//39 114//39 115//39
f 115//40 114//40 116//40
f 115//41 116//41 117//41
f 117//42 116//42 118//42
f 117//43 118//43 119//43
f 119//44 118//44 120//44
f 119//45 120//45 121//45
f 121//46 120//46 122//46
f 121//47 122//47 123//47
f 123//48 122//48 124//48
f 123//49 124//49 125//49
f 125//50 124//50 126//50
f 125//51 126//51 99//51
f 99//52 126//52 100//52
f 127//1 128//1 129//1
f 129//1 128//1 130//1
f 129//1 130//1 131//1
f 131//1 130//1 132//1
f 131//1 132//1 133//1
f 133//1 132//1 134//1
f 133//1 134//1 135//1
f 135//1 134//1 136//1
f 135//1 136//1 137//1
f 137//1 136//1 138//1
f 137//1 138//1 139//1
f 138//1 140//1 139//1
f 139//1 140//1 141//1
f 139//1 141//1 142//1
f 142//1 141//1 143//1
f 142//1 143//1 144//1
f 144//1 143//1 145//1
f 144//1 145//1 146//1
f 146//1 145//1 147//1
f 146//1 147//1 148//1
f 148//1 147//1 149//1
f 148//1 149//1 150//1
f 150//1 149//1 151//1
f 150//1 151//1 127//1
f 127//1 151//1 152//1
f 127//1 152//1 128//1
f 153//5 154//5 155//5
f 155//5 154//5 156//5
f 155//5 156//5 157//5
f 157//5 156//5 158//5
f 157//5 158//5 159//5
f 159//5 158//5 160//5
f 159//5 160//5 161//5
f 161//5 160//5 162//5
f 161//5 162//5 163//5
f 163//5 162//5 164//5
f 163//5 164//5 165//5
f 164//5 166//5 165//5
f 165//5 166//5 167//5
f 165//5 167//5 168//5
f 168//5 167//5 169//5
f 168//5 169//5 170//5
f 170//5 169//5 171//5
f 170//5 171//5 172//5
f 172//5 171//5 173//5
f 172//5 173//5 174//5
f 174//5 173//5 175//5
f 174//5 175//5 176//5
f 176//5 175//5 177//5
f 176//5 177//5 153//5
f 153//5 177//5 178//5
f 153//5 178//5 154//5
f 134//38 33//38 136//38
f 136//37 33//37 22//37
f 136//53 22//53 138//53
f 138//35 22//35 24//35
f 138//34 24//34 140//34
f 140//33 24//33 26//33
f 140//32 26//32 141//32
f 141//31 26//31 28//31
f 141//30 28//30 143//30
f 143//29 28//29 29//29
f 143//28 29//28 145//28
f 145//54 29//54 3//54
f 145//26 3//26 147//26
f 147//25 3//25 21//25
f 147//52 21//52 149//52
f 149//51 21//51 20//51
f 149//55 20//55 151//55
f 151//49 20//49 18//49
f 151//48 18//48 152//48
f 152//47 18//47 16//47
f 152//46 16//46 128//46
f 128//45 16//45 14//45
f 128//44 14//44 130//44
f 130//43 14//43 13//43
f 130//42 13//42 132//42
f 132//56 13//56 32//56
f 132//40 32//40 134//40
f 134//39 32//39 33//39
f 175//25 56//25 177//25
f 177//26 56//26 70//26
f 177//27 70//27 178//27
f 178//28 70//28 69//28
f 178//29 69//29 154//29
f 154//30 69//30 78//30
f 154//31 78//31 156//31
f 156//32 78//32 77//32
f 156//33 77//33 158//33
f 158//34 77//34 76//34
f 158//35 76//35 160//35
f 160//36 76//36 74//36
f 160//37 74//37 162//37
f 162//38 74//38 73//38
f 162//39 73//39 164//39
f 164//40 73//40 72//40
f 164//41 72//41 166//41
f 166//42 72//42 71//42
f 166//43 71//43 167//43
f 167//44 71//44 54//44
f 167//45 54//45 169//45
f 169//46 54//46 61//46
f 169//47 61//47 171//47
f 171//48 61//48 60//48
f 171//49 60//49 173//49
f 173//50 60//50 58//50
f 173//51 58//51 175//51
f 175//52 58//52 56//52
f 50//5 49//5 114//5
f 114//5 112//5 50//5
f 50//5 112//5 110//5
f 50//5 110//5 79//5
f 79//5 110//5 108//5
f 100//5 89//5 102//5
f 102//5 89//5 87//5
f 102//5 87//5 104//5
f 104//5 87//5 85//5
f 104//5 85//5 106//5
f 106//5 85//5 83//5
f 106//5 83//5 108//5
f 108//5 83//5 81//5
f 108//5 81//5 79//5
f 122//5 98//5 124//5
f 124//5 98//5 95//5
f 124//5 95//5 126//5
f 126//5 95//5 93//5
f 126//5 93//5 100//5
f 100//5 93//5 91//5
f 100//5 91//5 89//5
f 122//5 120//5 98//5
f 98//5 120//5 118//5
f 98//5 118//5 49//5
f 49//5 118//5 116//5
f 49//5 116//5 114//5
f 55//57 98//57 48//57
f 48//57 98//57 49//57
f 117//1 97//1 115//1
f 115//1 97//1 46//1
f 107//1 109//1 51//1
f 51//1 109//1 111//1
f 51//1 111//1 46//1
f 46//1 111//1 113//1
f 46//1 113//1 115//1
f 117//1 119//1 97//1
f 97//1 119//1 121//1
f 97//1 121//1 96//1
f 96//1 121//1 123//1
f 96//1 123//1 94//1
f 94//1 123//1 125//1
f 94//1 125//1 92//1
f 92//1 125//1 99//1
f 92//1 99//1 90//1
f 90//1 99//1 101//1
f 51//1 80//1 107//1
f 107//1 80//1 82//1
f 107//1 82//1 105//1
f 105//1 82//1 84//1
f 105//1 84//1 103//1
f 103//1 84//1 86//1
f 103//1 86//1 101//1
f 101//1 86//1 88//1
f 101//1 88//1 90//1
f 46//57 97//57 1//57
f 1//57 97//57 2//57
f 65//58 75//58 23//58
f 23//58 75//58 25//58
f 9//59 15//59 52//59
f 52//59 15//59 53//59
f 179//60 180//60 181//60
f 181//61 180//61 182//61
f 181//62 182//62 183//62
f 183//63 182//63 184//63
f 183//64 184//64 185//64
f 185//65 184//65 186//65
f 185//66 186//66 187//66
f 187//67 186//67 188//67
f 187//68 188//68 189//68
f 189//69 188//69 190//69
f 189//70 190//70 191//70
f 191//71 190//71 192//71
f 191//72 192//72 193//72
f 193//73 192//73 194//73
f 193//74 194//74 195//74
f 195//75 194//75 196//75
f 195//76 196//76 197//76
f 197//77 196//77 198//77
f 197//78 198//78 199//78
f 199//79 198//79 200//79
f 199//80 200//80 201//80
f 201//81 200//81 202//81
f 201//82 202//82 179//82
f 179//83 202//83 180//83
f 43//5 34//5 200//5
f 200//5 198//5 43//5
f 43//5 198//5 196//5
f 43//5 196//5 44//5
f 44//5 196//5 194//5
f 44//5 194//5 203//5
f 203//5 194//5 192//5
f 203//5 192//5 204//5
f 204//5 192//5 190//5
f 204//5 190//5 205//5
f 205//5 190//5 206//5
f 206//5 190//5 188//5
f 206//5 188//5 207//5
f 207//5 188//5 186//5
f 207//5 186//5 208//5
f 208//5 186//5 209//5
f 209//5 186//5 184//5
f 209//5 184//5 210//5
f 210//5 184//5 182//5
f 210//5 182//5 39//5
f 39//5 182//5 180//5
f 39//5 180//5 34//5
f 34//5 180//5 202//5
f 34//5 202//5 200//5
f 191//1 193//1 45//1
f 45//1 193//1 40//1
f 187//1 211//1 185//1
f 185//1 211//1 212//1
f 185//1 212//1 183//1
f 193//1 195//1 40//1
f 40//1 195//1 197//1
f 40//1 197//1 37//1
f 197//1 199//1 37//1
f 37//1 199//1 201//1
f 37//1 201//1 38//1
f 201//1 179//1 38//1
f 38//1 179//1 181//1
f 38//1 181//1 213//1
f 213//1 181//1 183//1
f 213//1 183//1 214//1
f 214//1 183//1 212//1
f 45//1 215//1 191//1
f 191//1 215//1 216//1
f 191//1 216//1 189//1
f 189//1 216//1 217//1
f 189//1 217//1 187//1
f 187//1 217//1 218//1
f 187//1 218//1 211//1
f 39//84 38//84 213//84
f 39//85 213//85 210//85
f 210//86 213//86 214//86
f 210//87 214//87 209//87
f 209//88 214//88 212//88
f 209//89 212//89 208//89
f 208//90 212//90 211//90
f 208//91 211//91 207//91
f 207//92 211//92 218//92
f 207//93 218//93 206//93
f 206//94 218//94 217//94
f 206//95 217//95 205//95
f 205//96 217//96 216//96
f 205//97 216//97 204//97
f 204//98 216//98 215//98
f 204//99 215//99 203//99
f 203//100 215//100 45//100
f 203//101 45//101 44//101
f 19//102 57//102 59//102
f 19//103 59//103 17//103
f 17//104 59//104 53//104
f 17//105 53//105 15//105
f 47//106 27//106 75//106
f 75//107 27//107 25//107
f 65//108 23//108 66//108
f 66//109 23//109 31//109
f 66//110 31//110 67//110
f 67//111 31//111 30//111
f 67//112 30//112 68//112
f 68//113 30//113 6//113
f 68//114 6//114 36//114
f 36//115 6//115 10//115
f 9//116 52//116 63//116
f 9//117 63//117 7//117
f 7//118 63//118 62//118
f 7//119 62//119 8//119
f 8//120 62//120 64//120
f 8//121 64//121 4//121
f 4//122 64//122 41//122
f 4//123 41//123 5//123
f 42//58 35//58 43//58
f 43//58 35//58 34//58
f 37//58 12//58 40//58
f 40//58 12//58 11//58
f 161//71 133//71 159//71
f 159//70 133//70 135//70
f 159//69 135//69 157//69
f 157//68 135//68 137//68
f 157//67 137//67 155//67
f 155//66 137//66 139//66
f 155//65 139//65 153//65
f 153//64 139//64 142//64
f 153//63 142//63 176//63
f 176//62 142//62 144//62
f 176//61 144//61 174//61
f 174//60 144//60 146//60
f 174//83 146//83 172//83
f 172//82 146//82 148//82
f 172//81 148//81 170//81
f 170//80 148//80 150//80
f 170//79 150//79 168//79
f 168//78 150//78 127//78
f 168//77 127//77 165//77
f 165//76 127//76 129//76
f 165//75 129//75 163//75
f 163//74 129//74 131//74
f 163//73 131//73 161//73
f 161//72 131//72 133//72
# Vertices: 218, normals: 123, texture coordinates: 0, faces: 444

